# xmcd
#
# Track frame offsets:
#	182
#	11687
#	25265
#	37615
#	50490
#	64887
#	76327
#	87612
#	100957
#	112852
#	123710
#	134512
#	146340
#	158867
#	172135
#	184385
#	198465
#	210922
#	224317
#	235905
#	246180
#	259655
#	272810
#	285957
#	297822
#	309757
#	323920
#	336440
#
# Disc length: 4667
#
# Revision: 1
# Processed by: cddbd v1.5.1PL0 Copyright (c) Steve Scherf et al.
# Submitted via: audiograbber 1.81.03
# Normalized: r0:DSETVAR1
#
DISCID=9c12391c
DTITLE=Various Artist - Nashville Classics
DYEAR=1900
DGENRE=
TTITLE0=Bill Monroe and his Bluegrass Boys - Orange Clossom Special
TTITLE1=Texas Jim Robertson - I앏l Be Back In A Year Little Darlin
TTITLE2=Elton Britt - There압 A Star-Spangled Banner Waving Somewhere
TTITLE3=Eddy Arnold - Each Minute Seems A Million Year
TTITLE4=Bill Boyd and The Cowboy Ramblers - Shame On You
TTITLE5=Sons of the Pioneers - Stars And Stripes On Iwo Jima
TTITLE6=Zeke Manners and his Band - Sioux City Sue
TTITLE7=Rosalie Allan - I Want To Be A Cowboy압 Sweetheart
TTITLE8=Texas Jim Robertson - Filipino Baby
TTITLE9=Rosalie Allan And The Black River Riders - Rose Of The Alamo
TTITLE10=Roy Rogers with Country Washburne - My Chickashay
TTITLE11=Spade Cooley - It압 Dark Outside
TTITLE12=jenny Lou Carson - I앏l Never Trust You Again
TTITLE13=Sons Of The Pioneers - Teardrops Im My Heart
TTITLE14=Eddy Arnold - I앏l Hold You In My Heart
TTITLE15=Lonzo and Oskar - I앐 My Own Gradpa
TTITLE16=The Blue Sky Boys - Garden In The Sky
TTITLE17=Pee Wee King - Tennessee Waltz
TTITLE18=Eddy Arnold - Bouquet Af Roses
TTITLE19=Elton Britt and The Skytoppers - Candy Kissis
TTITLE20=Kitty Wells - Death At The Bar
TTITLE21=Slimm Whitman - Birningham Jail
TTITLE22=Homer and Jethro With June Carter - Baby, Ti압 Could Outside
TTITLE23=Dolph Hewitt - I Wish I Knew
TTITLE24=Hank Snow - Marriage Vow
TTITLE25=Vernon Dalhart - The Prisoner압 Song
TTITLE26=Jimmie Rogers - Waiting For A Train
TTITLE27=The Carter Family - I앐 Thinhing Tonight Of The Blue Eyes
EXTD=
EXTT0=
EXTT1=
EXTT2=
EXTT3=
EXTT4=
EXTT5=
EXTT6=
EXTT7=
EXTT8=
EXTT9=
EXTT10=
EXTT11=
EXTT12=
EXTT13=
EXTT14=
EXTT15=
EXTT16=
EXTT17=
EXTT18=
EXTT19=
EXTT20=
EXTT21=
EXTT22=
EXTT23=
EXTT24=
EXTT25=
EXTT26=
EXTT27=
PLAYORDER=
